<svg width="30" height="30" viewBox="0 0 30 30" fill="none" xmlns="http://www.w3.org/2000/svg">
<path d="M15.0058 17.2418C16.2484 17.2418 17.2557 16.2349 17.2557 14.9928C17.2557 13.7508 16.2484 12.7439 15.0058 12.7439C13.7632 12.7439 12.7559 13.7508 12.7559 14.9928C12.7559 16.2349 13.7632 17.2418 15.0058 17.2418Z" fill="#0D253C" fill-opacity="0.8"/>
<path d="M29.8405 12.4741L28.6555 8.69586C28.5276 8.2592 28.313 7.85277 28.0245 7.50081C27.736 7.14885 27.3795 6.85857 26.9764 6.64729C26.5732 6.43601 26.1316 6.30806 25.6779 6.27106C25.2242 6.23406 24.7677 6.28877 24.3356 6.43194L23.8257 6.59686C23.4261 6.72886 23.0006 6.76236 22.5853 6.69448C22.1701 6.62661 21.7774 6.45937 21.4407 6.20704L21.2757 6.0871C20.9472 5.83578 20.6824 5.51081 20.5026 5.1384C20.3228 4.76598 20.2331 4.35655 20.2408 3.94312V3.52332C20.248 2.58181 19.8812 1.67589 19.2208 1.00452C18.9066 0.687351 18.5329 0.435336 18.1211 0.262949C17.7092 0.0905632 17.2673 0.00120271 16.8208 0H12.9959C12.0782 0.0118538 11.2024 0.385605 10.559 1.03988C9.91569 1.69415 9.557 2.57597 9.56103 3.49334V3.85316C9.55959 4.28836 9.46046 4.7177 9.27095 5.10951C9.08145 5.50133 8.80639 5.84565 8.46606 6.11709L8.27106 6.26701C7.89509 6.55131 7.45534 6.73953 6.99003 6.8153C6.52472 6.89107 6.04795 6.85211 5.60113 6.70181C5.19077 6.55986 4.75585 6.50262 4.32271 6.53355C3.88957 6.56447 3.46721 6.68292 3.0812 6.88172C2.67929 7.08111 2.32273 7.36103 2.03372 7.70409C1.7447 8.04714 1.52941 8.44597 1.40124 8.87577L0.171273 12.7739C-0.113956 13.6528 -0.0408085 14.6087 0.374832 15.4339C0.790472 16.2592 1.51505 16.8873 2.39122 17.1818H2.63121C3.03539 17.3332 3.39815 17.5777 3.69004 17.8956C3.98194 18.2134 4.19474 18.5955 4.31117 19.0109L4.40116 19.2508C4.56837 19.7098 4.62429 20.2019 4.56432 20.6866C4.50435 21.1714 4.3302 21.6351 4.05617 22.0395C3.50151 22.7945 3.26755 23.7379 3.4052 24.6645C3.54284 25.591 4.04094 26.4258 4.79115 26.9871L7.89607 29.341C8.48398 29.7683 9.19419 29.9944 9.92102 29.9857C10.1155 30.0048 10.3115 30.0048 10.506 29.9857C10.9561 29.8986 11.3838 29.7208 11.7629 29.463C12.142 29.2052 12.4646 28.8729 12.7109 28.4864L13.0559 27.9917C13.2979 27.6447 13.6182 27.3594 13.9907 27.1589C14.3633 26.9584 14.7779 26.8482 15.2009 26.8372C15.6442 26.8263 16.0831 26.9278 16.4765 27.1323C16.87 27.3368 17.2052 27.6376 17.4508 28.0067L17.6308 28.2615C17.8866 28.642 18.2175 28.966 18.6033 29.2138C18.989 29.4616 19.4215 29.6278 19.8739 29.7023C20.3264 29.7767 20.7893 29.7578 21.2342 29.6467C21.679 29.5355 22.0965 29.3346 22.4607 29.0562L25.5056 26.7772C26.2255 26.2184 26.7043 25.4054 26.8438 24.5049C26.9832 23.6045 26.7728 22.6849 26.2556 21.9345L25.8656 21.3648C25.6311 21.0026 25.4775 20.5941 25.4154 20.1672C25.3533 19.7403 25.384 19.305 25.5056 18.891C25.6295 18.4479 25.8595 18.0416 26.1758 17.7072C26.492 17.3728 26.8849 17.1205 27.3206 16.9719L27.6206 16.867C28.4886 16.5659 29.2055 15.9392 29.6198 15.1195C30.034 14.2997 30.1132 13.3511 29.8405 12.4741ZM15.0059 20.2404C13.9676 20.2404 12.9526 19.9326 12.0892 19.356C11.2259 18.7794 10.553 17.9598 10.1556 17.001C9.7583 16.0421 9.65433 14.987 9.8569 13.9691C10.0595 12.9512 10.5595 12.0162 11.2937 11.2823C12.0279 10.5484 12.9633 10.0487 13.9817 9.84619C15.0001 9.64371 16.0556 9.74763 17.0149 10.1448C17.9742 10.542 18.7941 11.2146 19.371 12.0775C19.9479 12.9404 20.2558 13.955 20.2558 14.9929C20.2558 16.3846 19.7026 17.7193 18.7181 18.7034C17.7336 19.6875 16.3982 20.2404 15.0059 20.2404Z" fill="#0D253C" fill-opacity="0.8"/>
</svg>
