<?xml version="1.0" encoding="UTF-8"?>
<!DOCTYPE svg PUBLIC "-//W3C//DTD SVG 1.1//EN" "http://www.w3.org/Graphics/SVG/1.1/DTD/svg11.dtd">
<!-- Creator: CorelDRAW 2019 (64-Bit) -->
<svg xmlns="http://www.w3.org/2000/svg" xml:space="preserve" width="6.66666in" height="6.66666in" version="1.1" style="shape-rendering:geometricPrecision; text-rendering:geometricPrecision; image-rendering:optimizeQuality; fill-rule:evenodd; clip-rule:evenodd"
viewBox="0 0 6666.66 6666.66"
 xmlns:xlink="http://www.w3.org/1999/xlink"
 xmlns:xodm="http://www.corel.com/coreldraw/odm/2003">
 <defs>
  <style type="text/css">
   <![CDATA[
    .fil0 {fill:url(#id0)}
   ]]>
  </style>
  <linearGradient id="id0" gradientUnits="userSpaceOnUse" x1="0" y1="1011.25" x2="6666.66" y2="4344.58">
   <stop offset="0" style="stop-opacity:1; stop-color:#FF6666"/>
   <stop offset="1" style="stop-opacity:1; stop-color:#FF0066"/>
  </linearGradient>
 </defs>
 <g id="Layer_x0020_1">
  <metadata id="CorelCorpID_0Corel-Layer"/>
  <path class="fil0" d="M666.67 4390.72c-1.55,-15.24 -2.59,-30.62 -3.1,-46.14l3.1 0 0 -666.67 0 -666.67 0 -666.67 0 -666.67 666.67 0 0 -3.47c23.17,0 46.07,1.18 68.64,3.47 157.65,16.04 299.13,86.72 405.22,192.8 106.08,106.08 176.77,247.57 192.81,405.22 2.3,22.57 3.47,45.47 3.47,68.64l-3.47 0 0 666.67 0 666.67 0 666.67 666.67 0 0 -666.67 0 -666.67 0 -22.5 666.67 0 0 22.5 0 333.33c0,116.88 20.05,229.07 56.9,333.33 100.43,284.14 325.63,509.33 609.76,609.76 104.26,36.85 216.45,56.9 333.33,56.9 116.88,0 229.07,-20.05 333.33,-56.9 284.13,-100.43 509.33,-325.63 609.76,-609.76 36.85,-104.26 56.9,-216.46 56.9,-333.33 0,-116.88 -20.05,-229.07 -56.9,-333.33 -100.43,-284.14 -325.62,-509.33 -609.76,-609.76 -104.26,-36.85 -216.46,-56.9 -333.33,-56.9l-333.33 0 0 -666.67 666.67 0 333.33 0 0 -3.47c28.31,0 56.36,1.17 84.08,3.47 86.68,7.19 170.23,25.4 249.26,53.22 143.03,50.35 271.21,132.2 376.22,237.21 105.02,105.02 186.86,233.2 237.22,376.23 27.82,79.04 46.03,162.6 53.22,249.3 2.3,27.71 3.47,55.73 3.47,84.03l-3.47 0 0 333.33 0 666.67 0 666.67 666.67 0 0 -666.67 0 -666.67 -0 -333.33 -3.47 0c0,-114.16 -11.5,-225.64 -33.41,-333.33 -50.13,-246.39 -154.72,-472.99 -300.68,-666.67 -46.89,-62.23 -98.06,-121.06 -153.05,-176.06 -55,-55 -113.82,-106.16 -176.05,-153.05 -193.68,-145.95 -420.27,-250.55 -666.67,-300.67 -107.69,-21.91 -219.17,-33.41 -333.33,-33.41l-333.33 -3.47 -666.67 0 -666.67 0 0 666.67 0 644.17 -666.67 0 0 22.5 -3.47 0c0,-242.94 -65.15,-470.67 -178.92,-666.67 -58.2,-100.27 -129.14,-192.24 -210.59,-273.69 -81.45,-81.45 -173.41,-152.38 -273.69,-210.59 -196,-113.77 -423.72,-178.92 -666.67,-178.92l0 -3.47 -666.67 0 -666.67 0 0 666.67 0 666.67 0 666.67 0 666.67 0 666.67 3.66 0c3.89,234.5 68.48,454.23 178.73,644.17 58.21,100.27 129.14,192.24 210.59,273.69 81.45,81.45 173.41,152.38 273.69,210.59 196,113.77 423.72,178.92 666.67,178.92l0 3.47 666.67 0 0 -666.67 -666.67 0 0 3.47c-23.17,0 -46.07,-1.18 -68.64,-3.47 -157.65,-16.04 -299.14,-86.72 -405.22,-192.8 -106.08,-106.08 -176.76,-247.57 -192.8,-405.22zm3666.66 -1379.47c184.09,0 333.33,149.24 333.33,333.33l0 333.33 -0 -333.33c0,184.09 -149.24,333.33 -333.33,333.33l-333.33 0 333.33 -0c-184.09,0 -333.33,-149.24 -333.33,-333.33l0 -333.33 333.33 0z"/>
 </g>
</svg>
