<svg width="20" height="20" viewBox="0 0 20 20" fill="none" xmlns="http://www.w3.org/2000/svg">
<path d="M5.62468 2.08325C6.08977 2.08325 6.55032 2.17486 6.98001 2.35285C7.40971 2.53083 7.80014 2.79171 8.12901 3.12058C8.45789 3.44946 8.71876 3.83989 8.89675 4.26958C9.07474 4.69928 9.16634 5.15982 9.16634 5.62492V9.16659H5.62468C4.68537 9.16659 3.78453 8.79345 3.12034 8.12926C2.45615 7.46506 2.08301 6.56423 2.08301 5.62492C2.08301 4.68561 2.45615 3.78477 3.12034 3.12058C3.78453 2.45639 4.68537 2.08325 5.62468 2.08325V2.08325ZM7.49968 7.49992V5.62492C7.49968 5.25408 7.38971 4.89157 7.18368 4.58322C6.97765 4.27488 6.68482 4.03456 6.34221 3.89264C5.9996 3.75073 5.6226 3.7136 5.25888 3.78595C4.89517 3.85829 4.56107 4.03687 4.29885 4.29909C4.03663 4.56132 3.85805 4.89541 3.7857 5.25912C3.71336 5.62284 3.75049 5.99984 3.8924 6.34245C4.03432 6.68506 4.27464 6.9779 4.58298 7.18392C4.89132 7.38995 5.25384 7.49992 5.62468 7.49992H7.49968ZM5.62468 10.8333H9.16634V14.3749C9.16634 15.0754 8.95863 15.7601 8.56946 16.3426C8.1803 16.925 7.62717 17.3789 6.98001 17.647C6.33286 17.9151 5.62075 17.9852 4.93373 17.8485C4.24672 17.7119 3.61565 17.3746 3.12034 16.8793C2.62503 16.3839 2.28772 15.7529 2.15106 15.0659C2.01441 14.3788 2.08454 13.6667 2.3526 13.0196C2.62066 12.3724 3.07461 11.8193 3.65703 11.4301C4.23946 11.041 4.9242 10.8333 5.62468 10.8333V10.8333ZM5.62468 12.4999C5.25384 12.4999 4.89132 12.6099 4.58298 12.8159C4.27464 13.0219 4.03432 13.3148 3.8924 13.6574C3.75049 14 3.71336 14.377 3.7857 14.7407C3.85805 15.1044 4.03663 15.4385 4.29885 15.7007C4.56107 15.963 4.89517 16.1415 5.25888 16.2139C5.6226 16.2862 5.9996 16.2491 6.34221 16.1072C6.68482 15.9653 6.97765 15.725 7.18368 15.4166C7.38971 15.1083 7.49968 14.7458 7.49968 14.3749V12.4999H5.62468ZM14.3747 2.08325C15.314 2.08325 16.2148 2.45639 16.879 3.12058C17.5432 3.78477 17.9163 4.68561 17.9163 5.62492C17.9163 6.56423 17.5432 7.46506 16.879 8.12926C16.2148 8.79345 15.314 9.16659 14.3747 9.16659H10.833V5.62492C10.833 4.68561 11.2061 3.78477 11.8703 3.12058C12.5345 2.45639 13.4354 2.08325 14.3747 2.08325V2.08325ZM14.3747 7.49992C14.7455 7.49992 15.108 7.38995 15.4164 7.18392C15.7247 6.9779 15.965 6.68506 16.107 6.34245C16.2489 5.99984 16.286 5.62284 16.2136 5.25912C16.1413 4.89541 15.9627 4.56132 15.7005 4.29909C15.4383 4.03687 15.1042 3.85829 14.7405 3.78595C14.3768 3.7136 13.9998 3.75073 13.6571 3.89264C13.3145 4.03456 13.0217 4.27488 12.8157 4.58322C12.6096 4.89157 12.4997 5.25408 12.4997 5.62492V7.49992H14.3747ZM10.833 10.8333H14.3747C15.0752 10.8333 15.7599 11.041 16.3423 11.4301C16.9247 11.8193 17.3787 12.3724 17.6468 13.0196C17.9148 13.6667 17.9849 14.3788 17.8483 15.0659C17.7116 15.7529 17.3743 16.3839 16.879 16.8793C16.3837 17.3746 15.7526 17.7119 15.0656 17.8485C14.3786 17.9852 13.6665 17.9151 13.0193 17.647C12.3722 17.3789 11.8191 16.925 11.4299 16.3426C11.0407 15.7601 10.833 15.0754 10.833 14.3749V10.8333ZM12.4997 12.4999V14.3749C12.4997 14.7458 12.6096 15.1083 12.8157 15.4166C13.0217 15.725 13.3145 15.9653 13.6571 16.1072C13.9998 16.2491 14.3768 16.2862 14.7405 16.2139C15.1042 16.1415 15.4383 15.963 15.7005 15.7007C15.9627 15.4385 16.1413 15.1044 16.2136 14.7407C16.286 14.377 16.2489 14 16.107 13.6574C15.965 13.3148 15.7247 13.0219 15.4164 12.8159C15.108 12.6099 14.7455 12.4999 14.3747 12.4999H12.4997Z" fill="#22264C"/>
</svg>
