<svg width="34" height="29" viewBox="0 0 34 29" fill="none" xmlns="http://www.w3.org/2000/svg">
<path d="M10.5898 12.816C10.5898 13.904 10.7498 14.8 11.0698 15.504C11.3898 16.144 11.7418 16.784 12.1258 17.424C12.5098 18 12.8618 18.64 13.1818 19.344C13.5018 20.048 13.6618 20.944 13.6618 22.032C13.6618 24.272 13.0538 25.936 11.8378 27.024C10.6858 28.048 9.18175 28.56 7.32575 28.56C5.46975 28.56 3.93375 28.048 2.71775 27.024C1.50175 25.936 0.89375 24.272 0.89375 22.032C0.89375 20.368 1.11775 18.576 1.56575 16.656C2.07775 14.672 2.74975 12.72 3.58175 10.8C4.41375 8.88 5.34175 7.056 6.36575 5.328C7.45375 3.6 8.54175 2.096 9.62975 0.815998L13.9498 3.696C13.0538 4.976 12.2538 6.448 11.5498 8.112C10.9098 9.712 10.5898 11.28 10.5898 12.816ZM29.7898 12.816C29.7898 13.904 29.9498 14.8 30.2698 15.504C30.5898 16.144 30.9418 16.784 31.3258 17.424C31.7098 18 32.0618 18.64 32.3818 19.344C32.7018 20.048 32.8618 20.944 32.8618 22.032C32.8618 24.272 32.2538 25.936 31.0378 27.024C29.8858 28.048 28.3818 28.56 26.5258 28.56C24.6698 28.56 23.1338 28.048 21.9178 27.024C20.7018 25.936 20.0938 24.272 20.0938 22.032C20.0938 20.368 20.3177 18.576 20.7657 16.656C21.2778 14.672 21.9498 12.72 22.7818 10.8C23.6138 8.88 24.5418 7.056 25.5658 5.328C26.6538 3.6 27.7418 2.096 28.8298 0.815998L33.1498 3.696C32.2538 4.976 31.4538 6.448 30.7498 8.112C30.1098 9.712 29.7898 11.28 29.7898 12.816Z" fill="black"/>
</svg>
